<svg xmlns="http://www.w3.org/2000/svg" viewBox="0 0 760 170" role="img" aria-label="FUADFX logo">
  <g fill="currentColor" transform="translate(30 15)">
    <polygon points="36,40 124,0 112,34 25,75"/>
    <polygon points="36,95 103,64 91,98 25,130"/>
  </g>
  <g transform="translate(205 45) scale(0.92)">
    <g fill="currentColor"><rect x="0.00" y="0.00" width="16.00" height="80.00"/><rect x="0.00" y="0.00" width="62.00" height="16.00"/><rect x="0.00" y="32.00" width="50.00" height="15.00"/><rect x="84.00" y="0.00" width="16.00" height="58.00"/><rect x="130.00" y="0.00" width="16.00" height="58.00"/><rect x="100.00" y="64.00" width="30.00" height="16.00"/><polygon points="168.00,80.00 204.00,0.00 240.00,80.00 221.00,80.00 204.00,39.00 187.00,80.00"/><polygon points="194.00,54.00 214.00,54.00 220.00,68.00 188.00,68.00"/><rect x="262.00" y="0.00" width="16.00" height="80.00"/><rect x="278.00" y="0.00" width="38.00" height="16.00"/><rect x="278.00" y="64.00" width="38.00" height="16.00"/><rect x="316.00" y="16.00" width="16.00" height="48.00"/><rect x="354.00" y="0.00" width="16.00" height="80.00"/><rect x="354.00" y="0.00" width="62.00" height="16.00"/><rect x="354.00" y="32.00" width="50.00" height="15.00"/><polygon points="438.00,0.00 458.00,0.00 484.00,31.00 510.00,0.00 530.00,0.00 494.00,41.00 530.00,80.00 510.00,80.00 484.00,50.00 458.00,80.00 438.00,80.00 474.00,41.00"/></g>
  </g>
</svg>